<svg width="none" height="none" viewBox="0 0 50 51" fill="" xmlns="http://www.w3.org/2000/svg">
<g clip-path="url(#clip0_156_14)">
<path fill-rule="evenodd" clip-rule="evenodd" d="M25 0.862305C38.8075 0.862305 50 12.3371 50 26.4946C50 37.8171 42.845 47.4222 32.9175 50.8147C31.65 51.0672 31.2 50.2667 31.2 49.5842C31.2 48.7392 31.23 45.9793 31.23 42.5493C31.23 40.1593 30.43 38.5994 29.5325 37.8044C35.1 37.1694 40.95 35.0017 40.95 25.1567C40.95 22.3567 39.98 20.0719 38.375 18.2769C38.635 17.6294 39.4925 15.0222 38.13 11.4922C38.13 11.4922 36.035 10.8054 31.2625 14.1204C29.265 13.5529 27.125 13.2673 25 13.2573C22.875 13.2673 20.7375 13.5529 18.7425 14.1204C13.965 10.8054 11.865 11.4922 11.865 11.4922C10.5075 15.0222 11.365 17.6294 11.6225 18.2769C10.025 20.0719 9.04751 22.3567 9.04751 25.1567C9.04751 34.9767 14.885 37.1777 20.4375 37.8252C19.7225 38.4652 19.075 39.5942 18.85 41.2517C17.425 41.9067 13.805 43.0403 11.575 39.1228C11.575 39.1228 10.2525 36.66 7.7425 36.48C7.7425 36.48 5.305 36.4476 7.5725 38.0376C7.5725 38.0376 9.21 38.8251 10.3475 41.7876C10.3475 41.7876 11.815 46.3625 18.77 44.8125C18.7825 46.955 18.805 48.9742 18.805 49.5842C18.805 50.2617 18.345 51.0546 17.0975 50.8171C7.16249 47.4296 0 37.8196 0 26.4946C0 12.3371 11.195 0.862305 25 0.862305Z" fill="" stroke=""/>
</g>
<defs>
<clipPath id="clip0_156_14">
<rect width="50" height="50" fill="" transform="translate(0 0.862305)"/>
</clipPath>
</defs>
</svg>
