<svg width="full" height="full" viewBox="0 0 50 51" fill="none" xmlns="http://www.w3.org/2000/svg">
<path fill-rule="evenodd" clip-rule="evenodd" d="M25 38.3623C31.9035 38.3623 37.5 32.7658 37.5 25.8623C37.5 18.9587 31.9035 13.3623 25 13.3623C18.0964 13.3623 12.5 18.9587 12.5 25.8623C12.5 32.7658 18.0964 38.3623 25 38.3623ZM25 34.1956C29.6023 34.1956 33.3333 30.4646 33.3333 25.8623C33.3333 21.2599 29.6023 17.529 25 17.529C20.3976 17.529 16.6667 21.2599 16.6667 25.8623C16.6667 30.4646 20.3976 34.1956 25 34.1956Z" fill="#0F0F0F"/>
<path d="M37.5 11.2788C36.3494 11.2788 35.4167 12.2116 35.4167 13.3621C35.4167 14.5127 36.3494 15.4455 37.5 15.4455C38.6506 15.4455 39.5834 14.5127 39.5834 13.3621C39.5834 12.2116 38.6506 11.2788 37.5 11.2788Z" fill="#0F0F0F"/>
<path fill-rule="evenodd" clip-rule="evenodd" d="M3.44573 9.77093C2.08331 12.4448 2.08331 15.9452 2.08331 22.9458V28.7791C2.08331 35.7798 2.08331 39.2802 3.44573 41.9539C4.64415 44.306 6.5564 46.2183 8.90844 47.4166C11.5823 48.7791 15.0827 48.7791 22.0833 48.7791H27.9166C34.9173 48.7791 38.4177 48.7791 41.0914 47.4166C43.4435 46.2183 45.3558 44.306 46.5541 41.9539C47.9166 39.2802 47.9166 35.7798 47.9166 28.7791V22.9458C47.9166 15.9452 47.9166 12.4448 46.5541 9.77093C45.3558 7.41888 43.4435 5.50663 41.0914 4.30822C38.4177 2.9458 34.9173 2.9458 27.9166 2.9458H22.0833C15.0827 2.9458 11.5823 2.9458 8.90844 4.30822C6.5564 5.50663 4.64415 7.41888 3.44573 9.77093ZM27.9166 7.11247H22.0833C18.5142 7.11247 16.088 7.11572 14.2126 7.26893C12.3859 7.41818 11.4517 7.6887 10.8001 8.02074C9.23204 8.8197 7.95721 10.0945 7.15825 11.6626C6.82621 12.3142 6.55569 13.2484 6.40644 15.0751C6.25323 16.9505 6.24998 19.3767 6.24998 22.9458V28.7791C6.24998 32.3483 6.25323 34.7743 6.40644 36.6498C6.55569 38.4766 6.82621 39.4108 7.15825 40.0625C7.95721 41.6304 9.23204 42.9052 10.8001 43.7041C11.4517 44.0362 12.3859 44.3068 14.2126 44.456C16.088 44.6091 18.5142 44.6125 22.0833 44.6125H27.9166C31.4858 44.6125 33.9119 44.6091 35.7873 44.456C37.6141 44.3068 38.5483 44.0362 39.2 43.7041C40.7679 42.9052 42.0427 41.6304 42.8416 40.0625C43.1737 39.4108 43.4444 38.4766 43.5935 36.6498C43.7466 34.7743 43.75 32.3483 43.75 28.7791V22.9458C43.75 19.3767 43.7466 16.9505 43.5935 15.0751C43.4444 13.2484 43.1737 12.3142 42.8416 11.6626C42.0427 10.0945 40.7679 8.8197 39.2 8.02074C38.5483 7.6887 37.6141 7.41818 35.7873 7.26893C33.9119 7.11572 31.4858 7.11247 27.9166 7.11247Z" fill="#0F0F0F"/>
</svg>
