<svg id="normal" width="35" height="35" viewBox="0 0 35 35" fill="" stroke-width="0.3" xmlns="http://www.w3.org/2000/svg">
<path opacity="0.2" d="M29.9868 7.89075V24.1018L24.7115 18.8265C24.5123 18.6274 24.2422 18.5156 23.9605 18.5156C23.6788 18.5156 23.4087 18.6274 23.2094 18.8265L19.8015 22.2345L13.2073 15.639C13.1086 15.5402 12.9915 15.4619 12.8625 15.4084C12.7335 15.3549 12.5952 15.3274 12.4556 15.3274C12.316 15.3274 12.1777 15.3549 12.0487 15.4084C11.9197 15.4619 11.8026 15.5402 11.7039 15.639L4.48685 22.8574V7.89075C4.48685 7.60895 4.59879 7.3387 4.79805 7.13945C4.9973 6.94019 5.26755 6.82825 5.54935 6.82825H28.9243C29.2061 6.82825 29.4764 6.94019 29.6756 7.13945C29.8749 7.3387 29.9868 7.60895 29.9868 7.89075Z" fill=""/>
<path d="M28.9243 5.76575H5.54935C4.98576 5.76575 4.44526 5.98963 4.04674 6.38815C3.64823 6.78666 3.42435 7.32716 3.42435 7.89075V27.0157C3.42435 27.5793 3.64823 28.1198 4.04674 28.5183C4.44526 28.9169 4.98576 29.1407 5.54935 29.1407H28.9243C29.4879 29.1407 30.0284 28.9169 30.4269 28.5183C30.8255 28.1198 31.0493 27.5793 31.0493 27.0157V7.89075C31.0493 7.32716 30.8255 6.78666 30.4269 6.38815C30.0284 5.98963 29.4879 5.76575 28.9243 5.76575ZM28.9243 7.89075V21.5372L25.4619 18.0761C25.2646 17.8788 25.0303 17.7222 24.7725 17.6154C24.5146 17.5085 24.2383 17.4536 23.9592 17.4536C23.6801 17.4536 23.4037 17.5085 23.1458 17.6154C22.888 17.7222 22.6537 17.8788 22.4564 18.0761L19.8001 20.7324L13.9564 14.8886C13.5579 14.4904 13.0176 14.2667 12.4543 14.2667C11.8909 14.2667 11.3506 14.4904 10.9522 14.8886L5.54935 20.2914V7.89075H28.9243ZM5.54935 23.297L12.4556 16.3907L23.0806 27.0157H5.54935V23.297ZM28.9243 27.0157H26.0861L21.3049 22.2345L23.9611 19.5782L28.9243 24.5428V27.0157ZM19.3618 13.7345C19.3618 13.4193 19.4553 13.1111 19.6304 12.8491C19.8056 12.587 20.0545 12.3827 20.3457 12.2621C20.6369 12.1414 20.9574 12.1099 21.2665 12.1714C21.5757 12.2329 21.8597 12.3847 22.0825 12.6075C22.3054 12.8304 22.4572 13.1144 22.5187 13.4236C22.5802 13.7327 22.5487 14.0532 22.428 14.3444C22.3074 14.6356 22.1031 14.8845 21.841 15.0597C21.5789 15.2348 21.2708 15.3282 20.9556 15.3282C20.5329 15.3282 20.1275 15.1603 19.8286 14.8614C19.5298 14.5626 19.3618 14.1572 19.3618 13.7345Z" fill=""/>
</svg>