<svg width="full" height="full" viewBox="0 0 50 51" fill="none" xmlns="http://www.w3.org/2000/svg">
  <path fill-rule="evenodd" clip-rule="evenodd" d="M25 49.2998C37.0812 49.2998 46.875 39.5061 46.875 27.4248C46.875 15.3436 37.0812 5.5498 25 5.5498C12.9188 5.5498 3.125 15.3436 3.125 27.4248C3.125 31.3481 4.15781 35.0301 5.96636 38.2139L3.125 49.2998L14.5545 46.6495C17.6584 48.3395 21.217 49.2998 25 49.2998Z" fill="#25D366"/>
  <path d="M43.75 25.8623C43.75 36.2176 35.3553 44.6123 25 44.6123C21.0503 44.6123 17.3858 43.3911 14.3635 41.3056L7.95455 42.9078L9.634 36.6098C7.50144 33.5665 6.25 29.8606 6.25 25.8623C6.25 15.507 14.6447 7.1123 25 7.1123C35.3553 7.1123 43.75 15.507 43.75 25.8623Z" fill="url(#paint0_linear_160_27)"/>
  <path fill-rule="evenodd" clip-rule="evenodd" d="M25 47.7373C37.0812 47.7373 46.875 37.9436 46.875 25.8623C46.875 13.7811 37.0812 3.9873 25 3.9873C12.9188 3.9873 3.125 13.7811 3.125 25.8623C3.125 29.7856 4.15781 33.4676 5.96636 36.6514L3.125 47.7373L14.5545 45.087C17.6584 46.777 21.217 47.7373 25 47.7373ZM25 44.372C35.2227 44.372 43.5097 36.085 43.5097 25.8623C43.5097 15.6397 35.2227 7.3527 25 7.3527C14.7774 7.3527 6.49039 15.6397 6.49039 25.8623C6.49039 29.8093 7.72578 33.4678 9.831 36.472L8.17308 42.6892L14.4999 41.1075C17.4834 43.1664 21.1009 44.372 25 44.372Z" fill="white"/>
  <path d="M19.5312 15.7057C19.0113 14.6611 18.2133 14.7536 17.4073 14.7536C15.9669 14.7536 13.7207 16.479 13.7207 19.6903C13.7207 22.322 14.8804 25.2028 18.7881 29.5123C22.5594 33.6714 27.5147 35.8228 31.6284 35.7495C35.7422 35.6764 36.5886 32.1362 36.5886 30.9407C36.5886 30.4109 36.2597 30.1465 36.0333 30.0746C34.6314 29.4018 32.0458 28.1482 31.4575 27.9128C30.8692 27.6773 30.562 27.9959 30.3711 28.1692C29.8377 28.6775 28.7802 30.1759 28.418 30.5129C28.0559 30.85 27.5161 30.6793 27.2914 30.552C26.4647 30.2203 24.2233 29.2232 22.4367 27.4912C20.227 25.3493 20.0973 24.6123 19.6811 23.9564C19.3481 23.4315 19.5925 23.1097 19.7144 22.9689C20.1905 22.4197 20.8478 21.5715 21.1427 21.1501C21.4373 20.7286 21.2034 20.0887 21.063 19.6903C20.4591 17.9762 19.9473 16.5414 19.5312 15.7057Z" fill="white"/>
  <defs>
    <linearGradient id="paint0_linear_160_27" x1="41.4062" y1="11.7998" x2="6.25" y2="44.6123" gradientUnits="userSpaceOnUse">
      <stop stop-color="#5BD066"/>
      <stop offset="1" stop-color="#27B43E"/>
    </linearGradient>
  </defs>
</svg>
