<svg width="35" height="34" viewBox="0 0 35 34" fill="none" xmlns="http://www.w3.org/2000/svg">
<path opacity="0.2" d="M28.229 4.25V25.5H10.1665C9.32113 25.5 8.51037 25.8358 7.9126 26.4336C7.31483 27.0314 6.979 27.8421 6.979 28.6875V7.4375C6.979 6.59212 7.31483 5.78137 7.9126 5.1836C8.51037 4.58583 9.32113 4.25 10.1665 4.25H15.479V17L19.729 13.8125L23.979 17V4.25H28.229Z" fill="black"/>
<path d="M28.229 3.1875H10.1665C9.03933 3.1875 7.95833 3.63527 7.1613 4.4323C6.36427 5.22933 5.9165 6.31033 5.9165 7.4375V29.75C5.9165 30.0318 6.02845 30.302 6.2277 30.5013C6.42696 30.7006 6.69721 30.8125 6.979 30.8125H26.104C26.3858 30.8125 26.656 30.7006 26.8553 30.5013C27.0546 30.302 27.1665 30.0318 27.1665 29.75C27.1665 29.4682 27.0546 29.198 26.8553 28.9987C26.656 28.7994 26.3858 28.6875 26.104 28.6875H8.0415C8.0415 28.1239 8.26539 27.5834 8.6639 27.1849C9.06242 26.7864 9.60292 26.5625 10.1665 26.5625H28.229C28.5108 26.5625 28.781 26.4506 28.9803 26.2513C29.1796 26.052 29.2915 25.7818 29.2915 25.5V4.25C29.2915 3.96821 29.1796 3.69796 28.9803 3.4987C28.781 3.29944 28.5108 3.1875 28.229 3.1875ZM16.5415 5.3125H22.9165V14.875L20.3652 12.9625C20.1813 12.8246 19.9576 12.75 19.7277 12.75C19.4978 12.75 19.2741 12.8246 19.0902 12.9625L16.5415 14.875V5.3125ZM27.1665 24.4375H10.1665C9.42029 24.4365 8.68711 24.6331 8.0415 25.0073V7.4375C8.0415 6.87391 8.26539 6.33341 8.6639 5.9349C9.06242 5.53638 9.60292 5.3125 10.1665 5.3125H14.4165V17C14.4165 17.1973 14.4715 17.3907 14.5752 17.5586C14.6789 17.7264 14.8274 17.8621 15.0038 17.9503C15.1803 18.0386 15.3779 18.0759 15.5744 18.0582C15.7709 18.0405 15.9586 17.9684 16.1165 17.85L19.729 15.1406L23.3428 17.85C23.5264 17.9877 23.7496 18.0622 23.979 18.0625C24.1439 18.0623 24.3066 18.0241 24.4545 17.9509C24.631 17.8626 24.7794 17.7268 24.8831 17.5589C24.9868 17.3909 25.0416 17.1974 25.0415 17V5.3125H27.1665V24.4375Z" fill="black"/>
</svg>
